<?xml version="1.0" standalone="no"?>
<!DOCTYPE svg PUBLIC "-//W3C//DTD SVG 20010904//EN"
 "http://www.w3.org/TR/2001/REC-SVG-20010904/DTD/svg10.dtd">
<svg version="1.0" xmlns="http://www.w3.org/2000/svg"
 width="1600.000000pt" height="1600.000000pt" viewBox="0 0 1600.000000 1600.000000"
 preserveAspectRatio="xMidYMid meet">

<g transform="translate(0.000000,1600.000000) scale(0.100000,-0.100000)"
fill="#000000" stroke="none">
<path d="M9560 11161 c-69 -10 -135 -23 -147 -29 -12 -7 -31 -12 -42 -12 -22
0 -135 -34 -186 -55 -16 -7 -40 -16 -53 -20 -46 -14 -202 -97 -274 -146 -15
-11 -34 -19 -43 -19 -8 0 -15 -6 -15 -14 0 -7 -8 -16 -17 -20 -18 -5 -53 -26
-63 -36 -3 -3 -30 -25 -60 -49 -107 -86 -295 -275 -371 -373 -19 -24 -36 -45
-39 -48 -3 -3 -19 -26 -35 -52 -17 -27 -36 -48 -42 -48 -7 0 -13 -7 -13 -16 0
-8 -17 -41 -39 -72 -55 -82 -119 -188 -126 -212 -3 -11 -11 -20 -16 -20 -5 0
-9 -6 -9 -14 0 -7 -21 -51 -46 -97 -44 -80 -94 -182 -94 -193 0 -3 -15 -38
-34 -78 -19 -40 -49 -113 -68 -163 -18 -49 -36 -91 -40 -93 -5 -2 -8 -12 -8
-22 0 -11 -5 -32 -11 -47 -6 -15 -15 -37 -20 -48 -4 -11 -11 -31 -14 -45 -4
-14 -13 -38 -20 -55 -16 -40 -65 -194 -65 -207 0 -5 -6 -24 -13 -41 -8 -18
-19 -50 -26 -72 -13 -41 -27 -77 -42 -107 -5 -10 -9 -25 -9 -33 0 -8 -4 -15
-9 -15 -5 0 -11 -13 -14 -30 -9 -43 -88 -211 -183 -385 -23 -44 -46 -87 -50
-95 -4 -8 -25 -43 -46 -78 -21 -34 -38 -67 -38 -72 0 -6 -4 -10 -9 -10 -5 0
-12 -8 -16 -19 -3 -10 -16 -30 -28 -43 -12 -14 -31 -40 -41 -59 -11 -19 -22
-36 -26 -39 -3 -3 -16 -22 -29 -42 -12 -21 -27 -38 -32 -38 -5 0 -9 -6 -9 -14
0 -8 -10 -23 -22 -33 -13 -10 -36 -36 -52 -58 -30 -40 -202 -215 -212 -215 -3
0 -27 -18 -53 -40 -26 -22 -53 -40 -59 -40 -7 0 -12 -4 -12 -8 0 -5 -32 -25
-71 -45 -38 -20 -76 -40 -82 -44 -50 -31 -190 -67 -312 -81 -108 -13 -24 -22
195 -22 138 0 231 5 285 15 44 8 103 18 130 22 28 3 52 9 55 12 3 4 48 17 100
30 52 13 99 28 104 32 6 5 19 9 31 9 12 0 25 4 31 8 5 5 25 15 44 22 87 32
293 140 379 197 51 35 98 63 102 63 5 0 9 4 9 9 0 5 8 12 18 15 9 3 33 21 53
38 20 18 55 49 79 67 23 19 48 41 56 48 7 7 17 13 23 13 6 0 11 7 11 15 0 8 4
15 8 15 11 0 202 191 202 202 0 4 7 8 15 8 8 0 15 6 15 13 0 6 20 33 43 58 59
63 105 121 152 188 94 136 109 156 117 159 4 2 8 8 8 13 0 5 17 35 37 66 21
32 44 69 51 83 7 14 24 43 37 65 14 22 28 48 31 58 4 9 10 17 15 17 5 0 9 7 9
16 0 8 15 45 34 82 19 37 42 85 51 107 40 91 54 124 85 198 18 42 37 77 41 77
5 0 9 10 9 21 0 12 18 60 41 108 22 47 53 113 68 146 86 185 116 245 123 245
5 0 8 9 8 20 0 11 5 20 10 20 6 0 10 8 10 18 0 10 4 22 9 27 12 13 90 155 98
178 3 9 12 17 19 17 8 0 14 9 14 20 0 12 18 48 40 81 22 33 40 65 40 71 0 9
28 49 65 91 8 9 15 20 15 24 0 10 63 107 72 111 5 2 8 10 8 17 0 7 3 15 8 17
12 5 72 86 72 97 0 5 3 11 8 13 4 2 23 23 42 48 19 25 39 50 45 56 5 6 32 38
60 70 78 93 294 304 311 304 3 0 15 10 27 21 26 25 185 132 211 142 29 12 12
31 -35 40 -181 33 -396 40 -549 18z"/>
<path d="M6830 11070 c-14 -5 -47 -13 -75 -20 -27 -6 -78 -24 -113 -41 -34
-16 -67 -29 -72 -29 -6 0 -10 -4 -10 -10 0 -5 -6 -10 -12 -10 -32 -1 -178
-147 -241 -242 -29 -43 -55 -78 -59 -78 -5 0 -8 -10 -8 -23 0 -13 -4 -27 -9
-32 -16 -18 -67 -150 -90 -235 -13 -47 -27 -94 -32 -105 -10 -26 -19 -98 -25
-213 l-5 -94 23 7 c25 8 130 57 138 65 9 9 100 70 105 70 7 0 139 136 160 166
11 16 28 36 38 46 9 10 17 21 17 24 0 3 13 24 28 47 15 23 33 53 39 67 6 14
23 51 37 83 14 32 26 62 26 67 0 20 121 247 147 276 16 16 37 43 47 59 20 32
23 35 86 104 22 24 40 48 40 53 0 10 -146 9 -180 -2z"/>
<path d="M8310 11064 c-186 -26 -301 -50 -355 -74 -11 -5 -38 -14 -60 -21 -22
-6 -81 -29 -132 -50 -50 -22 -96 -39 -101 -39 -6 0 -12 -4 -14 -8 -4 -10 -105
-72 -118 -72 -6 0 -10 -3 -10 -8 0 -4 -18 -18 -40 -32 -22 -14 -40 -28 -40
-32 0 -5 -6 -8 -14 -8 -17 0 -226 -203 -226 -219 0 -5 -6 -14 -13 -18 -21 -13
-72 -90 -114 -170 -9 -18 -20 -33 -25 -33 -4 0 -8 -9 -8 -20 0 -11 -4 -20 -10
-20 -5 0 -10 -7 -10 -16 0 -8 -15 -45 -34 -82 -18 -37 -47 -101 -62 -142 -16
-41 -32 -76 -36 -78 -5 -2 -8 -12 -8 -22 0 -11 -5 -32 -11 -47 -6 -15 -15 -37
-19 -48 -4 -11 -12 -31 -18 -45 -17 -39 -84 -232 -89 -258 -3 -12 -9 -25 -14
-28 -5 -3 -9 -16 -9 -29 0 -13 -4 -34 -9 -47 -30 -78 -119 -389 -128 -446 -3
-18 -9 -35 -14 -38 -5 -3 -9 -15 -9 -26 0 -30 -59 -216 -70 -223 -6 -3 -10
-15 -10 -27 0 -41 -191 -379 -227 -401 -7 -4 -13 -14 -13 -22 0 -7 -28 -41
-62 -74 l-61 -61 56 0 c31 0 58 4 61 9 3 5 23 12 43 16 21 4 52 13 68 20 17 7
48 19 70 27 22 7 59 25 81 41 23 15 47 27 53 27 6 0 11 4 11 9 0 5 8 11 18 15
22 7 49 25 81 54 14 12 34 22 43 22 10 0 18 5 18 12 0 15 50 68 64 68 6 1 25
19 41 40 17 21 36 39 43 40 6 0 12 6 12 13 0 8 10 22 21 33 12 10 35 39 52 64
35 51 45 64 70 91 9 10 17 21 17 24 0 2 24 44 53 92 29 48 61 105 70 126 10
20 22 37 27 37 6 0 10 9 10 20 0 11 4 28 10 38 5 9 19 40 30 67 11 28 25 58
30 67 6 10 10 22 10 28 0 6 11 33 25 62 14 28 25 56 25 61 0 5 6 23 13 40 7
18 26 70 41 117 31 96 48 141 82 218 13 29 24 59 24 66 0 8 7 16 15 20 8 3 15
15 15 27 0 12 23 67 52 123 28 55 59 115 67 133 9 18 22 32 29 33 6 0 12 9 12
20 0 12 18 48 40 81 22 33 40 62 40 64 0 3 12 22 28 43 15 22 42 61 61 88 61
86 144 187 213 259 37 39 68 73 68 78 0 4 7 7 15 7 8 0 15 7 15 15 0 8 3 15 8
15 4 0 35 26 69 58 135 124 249 207 316 229 9 3 17 9 17 14 0 5 9 9 21 9 11 0
17 5 14 10 -8 14 -178 10 -295 -6z"/>
<path d="M10215 10083 c-36 -5 -59 -14 -188 -79 -54 -27 -107 -57 -117 -66
-11 -10 -24 -18 -30 -18 -5 0 -10 -4 -10 -8 0 -4 -13 -15 -28 -24 -23 -14 -86
-74 -176 -168 -18 -19 -65 -78 -91 -115 -11 -15 -27 -36 -36 -45 -9 -10 -18
-21 -20 -26 -16 -37 -56 -94 -66 -94 -7 0 -13 -7 -13 -15 0 -8 -11 -35 -25
-59 -48 -87 -105 -201 -105 -213 0 -6 -6 -18 -12 -25 -7 -7 -19 -29 -26 -48
-8 -19 -41 -107 -74 -195 -33 -88 -64 -161 -69 -163 -5 -2 -9 -13 -9 -23 0
-19 -85 -209 -99 -219 -3 -3 -15 -21 -25 -40 -11 -19 -22 -37 -26 -40 -3 -3
-12 -19 -20 -36 -29 -61 -125 -204 -137 -204 -7 0 -13 -7 -13 -16 0 -16 -58
-106 -72 -112 -5 -2 -8 -8 -8 -13 0 -5 -6 -17 -14 -26 -92 -114 -122 -149
-133 -156 -7 -4 -13 -14 -13 -21 0 -26 -383 -401 -519 -509 -51 -40 -51 -41
-2 -33 76 12 280 76 369 117 34 16 65 29 68 29 15 0 222 106 258 132 21 15 45
28 53 28 7 0 13 5 13 10 0 6 4 10 10 10 11 0 103 62 108 73 2 4 12 7 23 7 10
0 19 6 19 13 1 6 28 32 61 57 76 56 250 229 290 287 17 23 34 43 39 43 6 0 10
5 10 12 0 6 11 26 25 44 14 18 25 38 25 44 0 6 7 13 15 16 8 4 15 14 15 24 0
10 4 20 8 22 20 8 135 276 160 373 66 255 116 420 142 467 6 10 10 24 10 33 0
15 13 47 56 143 13 29 24 58 24 65 0 6 41 93 91 192 50 99 99 194 108 212 9
18 22 32 29 33 6 0 12 7 12 15 0 15 19 55 31 65 3 3 12 16 19 29 7 14 17 30
21 35 11 13 113 158 123 174 7 12 0 13 -59 5z"/>
<path d="M10215 8190 c-3 -5 -17 -10 -31 -10 -13 0 -24 -4 -24 -10 0 -5 -9
-10 -19 -10 -10 0 -21 -7 -25 -15 -3 -8 -10 -15 -16 -15 -24 0 -152 -130 -208
-211 -20 -30 -40 -56 -43 -59 -4 -3 -21 -34 -39 -70 -18 -36 -36 -66 -41 -68
-5 -2 -9 -12 -9 -23 0 -10 -4 -19 -9 -19 -5 0 -11 -8 -15 -17 -8 -25 -29 -57
-43 -66 -7 -4 -13 -14 -13 -20 0 -7 -28 -42 -63 -77 -80 -83 -140 -128 -189
-144 -10 -3 -18 -9 -18 -15 0 -15 41 -21 151 -21 119 0 198 22 278 75 24 17
52 34 62 40 11 5 19 14 19 18 0 5 17 28 38 52 20 23 52 72 71 109 18 36 37 66
42 66 5 0 9 11 9 25 0 13 4 34 9 47 5 13 19 56 31 96 13 39 26 72 31 72 5 0 9
7 9 17 0 34 153 203 185 203 8 0 15 4 15 9 0 30 -130 66 -145 41z"/>
<path d="M7300 6731 c-14 -5 -41 -9 -62 -10 -20 -1 -38 -5 -40 -10 -1 -4 -37
-26 -78 -47 -41 -21 -87 -53 -103 -71 -16 -18 -35 -33 -43 -33 -8 0 -14 -9
-14 -20 0 -11 -4 -20 -8 -20 -5 0 -19 -22 -32 -50 -13 -27 -27 -50 -31 -50
-23 0 -37 -279 -18 -360 7 -30 15 -57 18 -60 3 -3 15 -21 25 -40 11 -19 33
-53 50 -75 32 -44 126 -125 145 -125 6 0 11 -4 11 -8 0 -17 154 -60 245 -69
65 -5 170 18 249 57 23 11 45 20 49 20 26 0 177 158 177 184 0 7 4 16 9 22 5
5 18 40 30 78 29 95 29 236 0 320 -27 82 -86 196 -101 196 -3 0 -24 17 -45 39
-44 45 -180 117 -238 126 -76 11 -170 14 -195 6z m226 -211 c79 -34 122 -86
159 -192 16 -47 20 -184 6 -220 -5 -13 -14 -41 -21 -63 -12 -41 -77 -125 -97
-125 -6 0 -16 -6 -22 -14 -18 -21 -103 -46 -163 -47 -92 -2 -162 25 -227 89
-34 34 -62 71 -68 92 -6 19 -16 54 -23 77 -8 25 -11 73 -8 125 4 69 10 93 37
146 18 34 45 71 60 82 14 11 31 24 37 29 23 19 61 35 99 42 60 11 185 0 231
-21z"/>
<path d="M8695 6730 c-11 -5 -32 -9 -46 -9 -34 -1 -129 -54 -169 -94 -46 -46
-80 -126 -80 -190 0 -56 29 -128 72 -179 24 -28 150 -98 176 -98 14 0 49 -10
107 -30 11 -3 40 -16 65 -28 25 -12 49 -22 54 -22 18 0 55 -51 62 -84 16 -88
-56 -156 -165 -156 -62 0 -114 33 -145 90 l-24 45 -101 3 -101 3 0 -38 c0 -25
11 -57 33 -92 17 -29 36 -62 42 -72 5 -11 15 -19 22 -19 7 0 29 -10 50 -21 49
-28 162 -59 212 -59 22 0 68 7 103 15 65 16 178 65 178 77 0 4 10 18 23 31 61
64 77 106 77 200 0 36 -6 79 -12 94 -14 30 -90 113 -103 113 -5 0 -16 6 -24
14 -9 7 -47 23 -86 36 -38 12 -95 31 -126 41 -31 11 -61 19 -67 19 -21 0 -81
45 -82 62 0 9 -4 18 -10 20 -5 2 -10 26 -11 54 -2 40 3 56 19 75 36 38 141 64
157 39 3 -5 16 -10 28 -10 23 0 77 -46 77 -66 0 -33 30 -44 126 -44 l94 0 0
50 c0 36 -4 52 -15 56 -8 4 -15 11 -15 18 -1 26 -73 88 -147 127 -55 28 -210
47 -248 29z"/>
<path d="M10625 6731 c-11 -5 -37 -10 -57 -10 -21 -1 -38 -5 -38 -10 0 -5 -17
-15 -37 -22 -103 -34 -205 -124 -265 -235 -20 -37 -43 -127 -53 -202 -10 -75
25 -250 57 -286 4 -6 8 -16 8 -24 0 -16 162 -182 177 -182 5 0 29 -10 54 -22
53 -26 137 -49 202 -55 51 -5 232 30 242 48 4 5 15 9 26 9 10 0 19 5 19 10 0
6 6 10 14 10 13 0 138 118 161 151 23 34 63 127 73 172 16 62 14 210 -2 267
-42 146 -125 251 -254 318 -37 19 -69 38 -72 42 -11 16 -227 33 -255 21z m220
-208 c60 -31 111 -81 139 -139 24 -49 30 -75 34 -157 4 -83 2 -106 -18 -159
-12 -34 -28 -67 -34 -74 -6 -7 -22 -26 -36 -43 -14 -17 -29 -31 -33 -31 -5 0
-15 -6 -23 -14 -37 -38 -223 -63 -272 -37 -9 5 -32 15 -49 21 -18 7 -33 16
-33 21 0 5 -6 9 -14 9 -7 0 -24 14 -37 32 -13 17 -29 36 -35 42 -11 11 -20 35
-44 122 -12 39 -9 140 5 199 20 86 79 166 150 202 65 34 237 38 300 6z"/>
<path d="M3440 6211 c0 -477 1 -510 18 -515 23 -7 166 -1 180 8 7 4 11 71 12
188 0 100 3 184 5 187 3 2 59 8 124 13 141 9 201 21 254 51 41 23 127 103 127
118 0 5 4 17 9 27 29 57 42 176 22 198 -5 5 -14 26 -21 46 -22 69 -151 168
-220 168 -10 0 -22 5 -25 10 -4 6 -97 10 -246 10 l-239 0 0 -509z m467 329
c50 -24 73 -68 73 -140 0 -114 -40 -141 -213 -142 l-122 -2 -3 152 -3 152 114
0 c92 0 121 -4 154 -20z"/>
<path d="M4341 6233 c1 -269 4 -499 8 -512 6 -23 11 -24 93 -26 72 -2 88 1 93
14 4 9 5 104 4 211 -2 108 1 201 5 208 9 14 431 18 440 4 3 -5 6 -102 6 -215
1 -145 5 -209 13 -215 10 -7 121 -9 185 -3 9 1 12 110 12 511 l0 511 -102 -3
-103 -3 -5 -208 -5 -209 -220 1 c-121 0 -222 1 -225 1 -3 0 -4 94 -2 210 l3
210 -100 0 -101 0 1 -487z"/>
<path d="M5400 6216 c0 -305 4 -507 9 -511 6 -3 50 -7 100 -9 84 -3 90 -2 95
18 3 12 6 243 6 514 l0 492 -105 0 -105 0 0 -504z"/>
<path d="M5820 6211 c0 -477 1 -510 18 -515 25 -7 498 1 511 9 6 3 11 35 11
70 0 53 -3 66 -19 75 -11 5 -86 10 -173 10 l-153 0 3 430 3 430 -100 0 -101 0
0 -509z"/>
<path d="M6502 6208 l3 -513 85 0 c47 0 90 2 97 3 9 3 12 126 13 513 l0 509
-100 0 -100 0 2 -512z"/>
<path d="M9322 6213 l3 -508 85 -6 c47 -3 91 -4 98 -1 9 3 12 52 12 197 l0
192 149 6 c139 6 154 9 214 37 67 32 129 85 152 130 24 47 46 158 35 182 -5
13 -14 41 -20 63 -16 64 -69 127 -137 163 -34 18 -70 32 -81 32 -12 0 -24 5
-27 10 -4 6 -97 10 -246 10 l-239 0 2 -507z m472 324 c91 -52 95 -216 6 -262
-21 -11 -62 -15 -155 -15 l-125 0 0 150 0 150 118 0 c103 0 122 -3 156 -23z"/>
<path d="M11380 6218 c0 -277 4 -508 8 -514 9 -13 172 -16 188 -4 7 6 11 74
13 192 1 100 5 186 8 191 3 5 28 7 55 5 56 -6 57 -7 118 -122 23 -45 49 -88
56 -97 8 -8 14 -21 14 -27 0 -8 66 -116 86 -141 6 -6 206 -6 210 1 4 6 -16 45
-55 109 -9 14 -29 48 -45 75 -16 27 -44 72 -61 99 -71 111 -72 122 -7 153 50
24 112 75 112 92 0 5 3 10 8 10 4 0 18 27 30 60 27 67 27 157 1 220 -13 32
-54 86 -87 114 -7 6 -18 16 -25 22 -7 6 -35 18 -62 28 -28 10 -58 22 -67 27
-10 5 -126 9 -258 9 l-240 0 0 -502z m418 326 c45 -4 70 -12 90 -29 35 -30 52
-103 37 -163 -22 -84 -78 -112 -231 -112 -84 0 -103 3 -108 16 -12 30 -7 279
6 292 12 12 48 11 206 -4z"/>
<path d="M12280 6640 l0 -79 138 -3 137 -3 3 -424 c2 -320 5 -427 14 -432 14
-9 164 -3 179 6 5 4 9 180 9 431 l0 424 140 0 140 0 0 80 0 80 -380 0 -380 0
0 -80z"/>
<path d="M10348 5391 c-64 -32 -107 -62 -108 -74 0 -4 -8 -17 -18 -28 -11 -10
-26 -50 -35 -87 -18 -74 -12 -144 17 -214 17 -41 81 -108 103 -108 7 0 13 -4
13 -8 0 -15 102 -45 154 -44 67 0 150 35 205 85 108 97 110 311 4 412 -99 95
-228 120 -335 66z m209 -132 c42 -26 63 -75 63 -149 0 -89 -31 -134 -107 -159
-56 -18 -124 1 -164 47 -27 31 -29 38 -29 117 l0 85 40 40 c38 38 43 40 101
40 45 0 71 -6 96 -21z"/>
<path d="M6062 5390 l-22 -10 0 -274 1 -274 31 -6 c17 -3 72 -6 122 -6 166 0
246 47 246 144 0 49 -14 79 -53 118 -28 26 -33 37 -26 51 6 9 16 17 24 17 16
0 55 77 55 108 0 12 -4 22 -10 22 -5 0 -10 6 -10 13 0 22 -24 67 -36 67 -6 0
-26 8 -45 18 -39 20 -237 29 -277 12z m265 -86 c25 -25 29 -95 6 -123 -18 -22
-28 -24 -107 -25 -48 -1 -91 1 -96 4 -4 3 -9 40 -12 83 l-3 77 98 0 c76 0 102
-4 114 -16z m-81 -224 c62 0 77 -3 95 -21 18 -18 21 -30 17 -71 -7 -73 -26
-86 -129 -88 -46 -1 -90 -2 -96 -1 -9 1 -13 26 -13 90 0 90 6 105 38 95 8 -2
47 -4 88 -4z"/>
<path d="M6647 5393 c-4 -3 -7 -129 -7 -280 l0 -274 158 3 157 3 3 28 3 27
-110 0 c-70 0 -112 4 -117 11 -4 6 -7 47 -8 90 -1 86 -4 83 67 79 21 -1 60 1
86 5 44 6 47 8 47 35 0 27 -3 29 -47 35 -26 4 -65 6 -86 5 -71 -3 -68 -7 -68
80 0 73 2 80 20 81 11 0 64 0 118 -1 l97 -1 0 40 0 41 -153 0 c-85 0 -157 -3
-160 -7z"/>
<path d="M7613 5393 c-7 -2 -13 -13 -13 -22 0 -10 -18 -62 -40 -116 -22 -54
-40 -104 -40 -112 0 -7 -4 -21 -9 -31 -24 -45 -102 -273 -96 -282 3 -5 19 -10
35 -10 33 0 70 43 70 83 0 14 7 28 16 31 9 3 68 6 133 6 l117 0 16 -37 c8 -21
18 -45 21 -54 6 -18 58 -32 82 -23 12 5 13 10 1 32 -7 15 -26 65 -41 112 -16
47 -36 103 -45 125 -10 22 -22 56 -28 75 -6 19 -20 60 -32 90 -12 30 -27 70
-33 89 -14 42 -67 63 -114 44z m111 -248 c20 -49 36 -100 36 -113 0 -22 -2
-23 -86 -18 -47 3 -89 8 -94 11 -8 5 -4 35 10 70 4 11 18 49 31 85 12 36 29
73 38 83 15 18 16 18 22 -5 4 -13 23 -63 43 -113z"/>
<path d="M8387 5393 c-4 -3 -7 -131 -7 -284 l0 -279 26 -6 c26 -7 92 1 103 11
3 4 6 56 6 116 0 64 4 110 10 112 6 2 57 1 114 -2 l104 -6 -2 -112 -2 -113 33
-1 c58 -2 83 2 98 17 8 8 10 14 5 14 -6 0 -10 102 -10 267 l0 268 -60 0 -60 0
-5 -105 -5 -105 -100 -5 c-55 -3 -104 -2 -109 2 -5 4 -8 38 -7 77 1 38 -1 85
-4 105 l-7 36 -57 0 c-32 0 -61 -3 -64 -7z"/>
<path d="M9057 5393 c-3 -5 -5 -130 -6 -280 0 -203 3 -274 12 -280 16 -10 257
-17 302 -9 34 7 35 8 35 55 0 58 -5 61 -131 61 l-86 0 1 53 c1 28 6 55 11 59
6 4 44 8 86 8 84 0 99 8 99 56 0 48 -19 57 -104 52 -86 -6 -96 3 -87 72 l6 45
100 5 100 5 0 50 0 50 -167 3 c-91 1 -169 -1 -171 -5z"/>
<path d="M9587 5393 c-4 -3 -7 -128 -7 -278 0 -197 3 -274 12 -283 13 -13 49
-15 97 -6 l31 7 0 103 c0 96 1 104 19 104 20 0 61 -44 61 -65 0 -7 9 -24 20
-38 11 -14 20 -30 20 -36 0 -7 5 -17 10 -24 6 -7 16 -20 23 -29 14 -20 91 -34
131 -24 l26 6 -31 58 c-17 31 -37 64 -43 72 -46 61 -47 99 -5 124 45 27 69 72
69 133 0 71 -26 124 -71 147 -8 4 -25 13 -39 21 -19 11 -62 15 -171 15 -80 0
-149 -3 -152 -7z m290 -117 c3 -3 7 -26 7 -52 1 -63 -25 -84 -104 -84 -66 0
-72 8 -63 82 8 73 6 71 84 66 38 -3 72 -8 76 -12z"/>
</g>
</svg>
